<svg width="100" height="48" viewBox="0 0 100 48" fill="none" xmlns="http://www.w3.org/2000/svg">
<path d="M27.4476 25.1667C27.4476 25.4333 27.3482 25.6667 27.1493 25.8667C26.9504 26.0444 26.7183 26.1333 26.4532 26.1333H13.9227C13.9227 27.4667 14.1879 28.6667 14.7183 29.7333C15.2707 30.7778 16.0442 31.6111 17.0387 32.2333C18.0553 32.8333 19.2487 33.1333 20.6189 33.1333C21.6796 33.1333 22.6299 32.9111 23.4697 32.4667C24.3095 32.0222 24.9835 31.4556 25.4918 30.7667C25.7349 30.5667 25.967 30.4667 26.188 30.4667C26.409 30.4667 26.6079 30.5556 26.7846 30.7333C26.9614 30.9111 27.0498 31.1111 27.0498 31.3333C27.0498 31.5778 26.9393 31.8111 26.7183 32.0333C26.0112 32.9 25.1161 33.6111 24.0332 34.1667C22.9725 34.7222 21.8454 35 20.652 35C18.9503 35 17.4476 34.6333 16.1437 33.9C14.8398 33.1667 13.8232 32.1444 13.0939 30.8333C12.3646 29.5 12 27.9667 12 26.2333C12 24.4111 12.3536 22.8222 13.0608 21.4667C13.7901 20.0889 14.7514 19.0444 15.9448 18.3333C17.1382 17.6 18.4089 17.2333 19.757 17.2333C21.0829 17.2333 22.3205 17.5444 23.4697 18.1667C24.641 18.7889 25.5913 19.7 26.3206 20.9C27.0498 22.1 27.4255 23.5222 27.4476 25.1667ZM19.757 19.1667C18.4752 19.1667 17.2818 19.6111 16.1768 20.5C15.0939 21.3889 14.3978 22.6667 14.0884 24.3333H25.3924V24.0667C25.2819 23.0667 24.9504 22.2 24.3979 21.4667C23.8454 20.7111 23.1493 20.1444 22.3095 19.7667C21.4918 19.3667 20.641 19.1667 19.757 19.1667Z" fill="#474747"/>
<path d="M33.2376 33.6667C33.2376 33.9556 33.1382 34.2 32.9393 34.4C32.7625 34.5778 32.5305 34.6667 32.2432 34.6667C31.9559 34.6667 31.7128 34.5778 31.5139 34.4C31.3371 34.2 31.2487 33.9556 31.2487 33.6667V11C31.2487 10.7111 31.3371 10.4778 31.5139 10.3C31.7128 10.1 31.9559 10 32.2432 10C32.5305 10 32.7625 10.1 32.9393 10.3C33.1382 10.4778 33.2376 10.7111 33.2376 11V33.6667Z" fill="#474747"/>
<path d="M50.1465 17.3C50.3674 17.3 50.5774 17.3778 50.7763 17.5333C50.9752 17.6889 51.0746 17.8889 51.0746 18.1333C51.0746 18.3333 51.0304 18.5222 50.942 18.7L44.4448 34.0333C44.3564 34.2111 44.2238 34.3667 44.047 34.5C43.8923 34.6111 43.7265 34.6667 43.5497 34.6667C43.3287 34.6889 43.1298 34.6444 42.953 34.5333C42.7762 34.4222 42.6436 34.2556 42.5552 34.0333L36.0248 18.7C36.0248 18.6556 36.0027 18.5889 35.9585 18.5C35.9364 18.4111 35.9253 18.3222 35.9253 18.2333C35.9253 17.9667 36.0137 17.7444 36.1905 17.5667C36.3673 17.3667 36.6215 17.2667 36.953 17.2667C37.1519 17.2667 37.3287 17.3333 37.4834 17.4667C37.6602 17.5778 37.7928 17.7333 37.8812 17.9333L43.5166 31.4333L49.1851 17.9333C49.2735 17.7333 49.3951 17.5778 49.5498 17.4667C49.7266 17.3333 49.9255 17.2778 50.1465 17.3Z" fill="#474747"/>
<path d="M69.8841 26.1333C69.8841 27.8 69.5194 29.3111 68.7902 30.6667C68.0609 32.0222 67.0553 33.0889 65.7736 33.8667C64.4918 34.6222 63.0664 35 61.4973 35C59.9282 35 58.5028 34.6222 57.221 33.8667C55.9392 33.0889 54.9337 32.0222 54.2044 30.6667C53.4751 29.3111 53.1105 27.8 53.1105 26.1333C53.1105 24.4667 53.4751 22.9556 54.2044 21.6C54.9337 20.2444 55.9392 19.1778 57.221 18.4C58.5028 17.6222 59.9282 17.2333 61.4973 17.2333C63.0664 17.2333 64.4918 17.6222 65.7736 18.4C67.0553 19.1778 68.0609 20.2444 68.7902 21.6C69.5194 22.9556 69.8841 24.4667 69.8841 26.1333ZM67.8951 26.1333C67.8951 24.8 67.6189 23.6 67.0664 22.5333C66.5139 21.4667 65.7404 20.6333 64.7459 20.0333C63.7735 19.4111 62.6907 19.1 61.4973 19.1C60.3039 19.1 59.221 19.4111 58.2486 20.0333C57.2763 20.6333 56.5028 21.4667 55.9282 22.5333C55.3757 23.6 55.0994 24.8 55.0994 26.1333C55.0994 27.4444 55.3757 28.6333 55.9282 29.7C56.5028 30.7667 57.2763 31.6111 58.2486 32.2333C59.221 32.8333 60.3039 33.1333 61.4973 33.1333C62.6907 33.1333 63.7735 32.8333 64.7459 32.2333C65.7404 31.6333 66.5139 30.8 67.0664 29.7333C67.6189 28.6667 67.8951 27.4667 67.8951 26.1333Z" fill="#474747"/>
<path d="M81.3779 17.2333C81.8199 17.2333 82.2177 17.3222 82.5713 17.5C82.9249 17.6778 83.1016 17.9444 83.1016 18.3C83.1016 18.6111 83.0132 18.8667 82.8365 19.0667C82.6597 19.2444 82.4497 19.3333 82.2066 19.3333C82.0961 19.3333 81.8751 19.2778 81.5436 19.1667C81.2342 19.0556 80.9359 19 80.6486 19C79.8309 19 79.0132 19.3222 78.1955 19.9667C77.4 20.5889 76.737 21.4 76.2066 22.4C75.6983 23.4 75.4441 24.4111 75.4441 25.4333V33.6667C75.4441 33.9556 75.3447 34.2 75.1458 34.4C74.969 34.5778 74.7369 34.6667 74.4497 34.6667C74.1624 34.6667 73.9193 34.5778 73.7204 34.4C73.5436 34.2 73.4552 33.9556 73.4552 33.6667V18.7333C73.4552 18.4444 73.5436 18.2111 73.7204 18.0333C73.9193 17.8333 74.1624 17.7333 74.4497 17.7333C74.7369 17.7333 74.969 17.8333 75.1458 18.0333C75.3447 18.2111 75.4441 18.4444 75.4441 18.7333V21.6667C75.9524 20.4 76.7149 19.3556 77.7314 18.5333C78.7701 17.6889 79.9856 17.2556 81.3779 17.2333Z" fill="#474747"/>
<path d="M87.6353 33.6667C87.6353 33.9556 87.5359 34.2 87.337 34.4C87.1602 34.5778 86.9282 34.6667 86.6409 34.6667C86.3536 34.6667 86.1105 34.5778 85.9116 34.4C85.7348 34.2 85.6464 33.9556 85.6464 33.6667V18.3333C85.6464 18.0444 85.7348 17.8111 85.9116 17.6333C86.1105 17.4333 86.3536 17.3333 86.6409 17.3333C86.9282 17.3333 87.1602 17.4333 87.337 17.6333C87.5359 17.8111 87.6353 18.0444 87.6353 18.3333V33.6667ZM86.6409 15.1C86.1989 15.1 85.8563 15 85.6132 14.8C85.3701 14.5778 85.2486 14.2667 85.2486 13.8667V13.5333C85.2486 13.1333 85.3701 12.8333 85.6132 12.6333C85.8784 12.4111 86.232 12.3 86.674 12.3C87.558 12.3 88 12.7111 88 13.5333V13.8667C88 14.2667 87.8784 14.5778 87.6353 14.8C87.4144 15 87.0829 15.1 86.6409 15.1Z" fill="#474747"/>
</svg>
